<svg width="65" height="65" viewBox="0 0 65 65" fill="none" xmlns="http://www.w3.org/2000/svg">
<path d="M9.66742 12.0302C4.80876 17.4567 2.08854 24.4644 2.01358 31.7478C1.82892 48.3903 15.4168 62.0752 32.0593 62.1065C48.6784 62.1378 62.105 48.6751 62.105 32.0607C62.105 15.7015 49.0305 2.38901 32.7635 2.015C32.6719 2.01206 32.5807 2.02758 32.4953 2.06065C32.4099 2.09372 32.332 2.14365 32.2663 2.20747C32.2005 2.27129 32.1484 2.34768 32.1128 2.43211C32.0772 2.51653 32.0591 2.60725 32.0593 2.69885V15.786" stroke="white" stroke-width="4" stroke-linecap="round" stroke-linejoin="round"/>
<path d="M28.5213 35.6021L16.1587 17.9189C15.9877 17.6739 15.9084 17.3766 15.9346 17.0789C15.9609 16.7813 16.091 16.5024 16.3023 16.2911C16.5136 16.0798 16.7925 15.9496 17.0901 15.9234C17.3878 15.8971 17.6852 15.9765 17.9302 16.1475L35.6133 28.5101C36.698 29.2912 37.4315 30.468 37.6552 31.7858C37.8789 33.1036 37.5748 34.4565 36.8087 35.5519C36.0426 36.6472 34.8761 37.3969 33.5616 37.6389C32.247 37.8808 30.89 37.5955 29.7842 36.8446C29.2952 36.5058 28.868 36.0855 28.5213 35.6021Z" fill="white"/>
</svg>
